<svg width="110px" height="25px" viewBox="0 0 110 25" version="1.1" xmlns="http://www.w3.org/2000/svg" xmlns:xlink="http://www.w3.org/1999/xlink">
    <g id="Page-1" stroke="none" stroke-width="1" fill="none" fill-rule="evenodd">
        <g id="wisembly-logo">
            <g id="Group" transform="translate(0.246405, 0.141304)">
                <path d="M7.10877649,17.0597826 L0.142914744,5.04891304 L0.630796111,18.4728261 L7.10877649,17.0597826 L7.10877649,17.0597826 Z" id="Shape" fill="#47B589"></path>
                <path d="M14.1830563,17.576087 L0.657900632,20.5108696 L13.5054433,24.2065217 L14.1830563,17.576087 L14.1830563,17.576087 Z" id="Shape" fill="#E25C5B"></path>
                <path d="M16.8935084,11 L15.4840733,24.7771739 L22.9378164,13.6630435 L16.8935084,11 Z" id="Shape" fill="#F7896C"></path>
                <path d="M15.8635366,1.4076087 L11.4454998,6.38043478 L24.1033108,11.9782609 L15.8635366,1.4076087 Z" id="Shape" fill="#F2BC33"></path>
                <path d="M14.6167286,-0.195652174 L2.06733569,4.36956522 L2.06733569,4.39673913 L5.4011917,10.1304348 L14.6167286,-0.195652174 L14.6167286,-0.195652174 Z" id="Shape" fill="#07698D"></path>
            </g>
            <g id="Group" transform="translate(29.228529, 4.347826)" fill="#07698D" >
                <path d="M80.5004256,3.58695652 L78.1965414,3.58695652 L75.8655526,10.298913 L73.2906232,3.58695652 L70.7427983,3.58695652 L74.6729537,13.0434783 C74.320595,13.8043478 74.0224452,13.9945652 73.4803548,14.0217391 C73.073787,14.0217391 72.6672192,13.8858696 72.2877559,13.6684783 L72.1793378,13.6141304 L71.3662022,15.4076087 L71.4475158,15.4619565 C72.0980243,15.8152174 72.8027418,16.0326087 73.697191,16.0326087 C75.2421486,16.0326087 76.1365978,15.2717391 76.8684199,13.3423913 L80.6359482,3.58695652 L80.5004256,3.58695652 L80.5004256,3.58695652 Z" id="Shape"></path>
                <path d="M61.0664845,3.58695652 C59.6570494,3.58695652 58.7083912,4.07608696 58.0307782,4.91847826 L58.0307782,0.0543478261 L55.6726849,0.0543478261 L55.6726849,13.2336957 L58.0307782,13.2336957 L58.0307782,11.9021739 C58.6812867,12.6902174 59.6570494,13.2336957 61.0664845,13.2336957 C63.3432642,13.2336957 65.4303123,11.7119565 65.4303123,8.5326087 C65.4303123,5.38043478 63.3432642,3.58695652 61.0664845,3.58695652 L61.0664845,3.58695652 Z M60.5786031,5.65217391 C61.9609336,5.65217391 63.126428,6.76630435 63.126428,8.55978261 C63.126428,10.3804348 61.9880382,11.1684783 60.5786031,11.1684783 C59.1962726,11.1684783 57.9765692,10.1358696 57.9765692,8.36956522 C57.9765692,6.60326087 59.1962726,5.65217391 60.5786031,5.65217391 L60.5786031,5.65217391 Z" id="Shape"></path>
                <path d="M50.6854532,3.58695652 C49.3031226,3.58695652 48.3002554,4.21195652 47.5413288,5.13586957 C47.0263429,4.18478261 46.0776847,3.55978261 44.7495632,3.58695652 C43.4214417,3.58695652 42.6083061,4.23913043 42.0120066,4.97282609 L42.0120066,3.58695652 L39.6539134,3.58695652 L39.6539134,13.2336957 L42.0120066,13.2336957 L42.0120066,7.98913043 C42.0120066,6.57608696 42.7709332,5.76086957 43.8822185,5.76086957 C44.9935039,5.76086957 45.6440124,6.49456522 45.6440124,7.9076087 L45.6440124,13.2336957 L48.0021056,13.2336957 L48.0021056,7.96195652 C48.0021056,6.49456522 48.7881367,5.76086957 49.8723175,5.76086957 C51.0107074,5.76086957 51.6341114,6.4673913 51.6612159,7.93478261 L51.6612159,13.2608696 L54.0193092,13.2608696 L54.0193092,7.2826087 C54.0193092,6.11413043 53.6940549,5.19021739 53.12486,4.56521739 C52.5827696,3.91304348 51.7425295,3.58695652 50.6854532,3.58695652 L50.6854532,3.58695652 Z" id="Shape"></path>
                <rect id="Rectangle-path" x="66.9481654" y="0" width="2.35809328" height="13.1793478"></rect>
                <path d="M10.0828816,9.72826087 L8.1042516,3.58695652 L8.02293804,3.58695652 L6.12562161,3.58695652 L4.14699162,9.72826087 L2.35809328,3.58695652 L-0.0813135612,3.58695652 L3.00860177,13.2336957 L5.06854532,13.2336957 L7.10138435,7.0923913 L9.10711886,13.2336957 L11.1670624,13.2336957 L14.2840823,3.58695652 L11.925989,3.58695652 L10.0828816,9.72826087 Z" id="Shape"></path>
                <path d="M16.0729806,13.2336957 L18.4310739,13.2336957 L18.4310739,13.125 L18.4310739,3.58695652 L16.0729806,3.58695652 L16.0729806,13.2336957 Z" id="Shape"></path>
                <path d="M24.6922181,7.44565217 C23.5809328,7.0923913 22.6322745,6.92934783 22.6593791,6.38586957 L22.6593791,6.35869565 C22.6593791,5.89673913 23.0388423,5.54347826 23.851978,5.54347826 C24.5838,5.54347826 25.5324582,5.86956522 26.4269074,6.41304348 L26.5353255,6.4673913 L27.4839837,4.75543478 L27.4026701,4.70108696 C26.3998029,4.02173913 25.0987859,3.61413043 23.906187,3.61413043 C22.0088706,3.61413043 20.4910174,4.72826087 20.4639129,6.57608696 L20.4639129,6.60326087 C20.4639129,8.47826087 22.0901841,8.94021739 23.4454102,9.32065217 C24.5566955,9.64673913 25.4782492,9.83695652 25.4511447,10.4347826 L25.4511447,10.4619565 C25.4511447,11.0054348 25.0174723,11.3315217 24.1230232,11.3315217 C23.2014695,11.3315217 22.1172887,10.951087 21.1415259,10.2173913 L21.0331078,10.1358696 L19.948927,11.7663043 L20.0302406,11.8206522 C21.2228395,12.7445652 22.7135881,13.2336957 24.0417096,13.2336957 C26.0203396,13.2336957 27.6195063,12.2282609 27.6195063,10.1902174 L27.6195063,10.1630435 C27.6737153,8.39673913 26.0474441,7.85326087 24.6922181,7.44565217 L24.6922181,7.44565217 Z" id="Shape"></path>
                <path d="M38.0818512,8.64130435 L38.0818512,8.64130435 C38.0547467,5.95108696 36.509789,3.58695652 33.5011872,3.55978261 C30.7636307,3.55978261 28.8392097,5.67934783 28.8392097,8.42391304 C28.8392097,11.3858696 30.9804668,13.2065217 33.7451279,13.2065217 C35.4798172,13.2065217 36.7537297,12.5 37.6481788,11.4130435 L36.2387438,10.1358696 C35.5069217,10.8423913 34.8022042,11.2228261 33.7993369,11.2228261 C32.5254245,11.2228261 31.5496618,10.7880435 31.251512,9.40217391 L38.0547467,9.40217391 L38.1089557,9.40217391 C38.0818512,8.94021739 38.0818512,8.80434783 38.0818512,8.64130435 L38.0818512,8.64130435 Z M31.197303,7.79891304 C31.4141392,6.4673913 32.2814838,5.57065217 33.4740827,5.57065217 C34.7750997,5.57065217 35.5340263,6.52173913 35.6966534,7.79891304 L31.197303,7.79891304 L31.197303,7.79891304 Z" id="Shape"></path>
                <rect id="Rectangle-path" x="15.991667" y="0" width="2.3851978" height="2.39130435"></rect>
            </g>
        </g>
    </g>
</svg>
